<?xml version="1.0" encoding="utf-8"?>
<!-- Generator: Adobe Illustrator 27.7.0, SVG Export Plug-In . SVG Version: 6.00 Build 0)  -->
<svg version="1.1" id="Layer_1" xmlns="http://www.w3.org/2000/svg" xmlns:xlink="http://www.w3.org/1999/xlink" x="0px" y="0px"
	 viewBox="0 0 209 54" style="enable-background:new 0 0 209 54;" xml:space="preserve">
<style type="text/css">
	
		.st0{fill-rule:evenodd;clip-rule:evenodd;fill:#2584FF;stroke:#2584FF;stroke-width:10;stroke-linecap:round;stroke-linejoin:round;}
	
		.st1{fill-rule:evenodd;clip-rule:evenodd;fill:#FF3400;stroke:#FF3400;stroke-width:10;stroke-linecap:round;stroke-linejoin:round;}
	.st2{enable-background:new    ;}
	.st3{fill:#FFFFFF;}
</style>
<path id="Polygon_1_copy_2" class="st0" d="M43.9,29.7l-19.6,9.5L32,14L43.9,29.7z"/>
<path id="Polygon_1_copy_2-2" class="st1" d="M37,29.7l19.6,9.5L48.8,14L37,29.7z"/>
<g id="Moshify" class="st2">
	<path class="st3" d="M73.4,13.6H79l6,14.7h0.3l6-14.7H97v21.8h-4.5V21.2h-0.2l-5.6,14.1h-3L78,21.2h-0.2v14.3h-4.5V13.6z"/>
	<path class="st3" d="M100,17.4v-3.8h17.9v3.8h-6.7v18h-4.6v-18H100z"/>
	<path class="st3" d="M123.1,17c-0.7,0-1.3-0.2-1.7-0.7c-0.5-0.5-0.7-1-0.7-1.6c0-0.6,0.2-1.2,0.7-1.6c0.5-0.5,1.1-0.7,1.7-0.7
		c0.7,0,1.3,0.2,1.7,0.7c0.5,0.5,0.7,1,0.7,1.6c0,0.6-0.2,1.2-0.7,1.6C124.3,16.7,123.7,17,123.1,17z M120.8,35.4V19.1h4.5v16.4
		H120.8z"/>
	<path class="st3" d="M137.7,19.1v3.4h-10.1v-3.4H137.7z M129.9,35.4V17.9c0-1.2,0.2-2.2,0.7-3s1.1-1.4,1.9-1.8
		c0.8-0.4,1.7-0.6,2.8-0.6c0.7,0,1.3,0.1,1.9,0.2s1,0.2,1.3,0.3l-0.8,3.4c-0.2-0.1-0.4-0.1-0.7-0.2c-0.3,0-0.5-0.1-0.8-0.1
		c-0.7,0-1.1,0.2-1.4,0.5c-0.3,0.3-0.4,0.7-0.4,1.3v17.5H129.9z"/>
	<path class="st3" d="M143.3,41.5c-0.6,0-1.1,0-1.6-0.1s-0.9-0.2-1.2-0.3l1-3.4c0.8,0.2,1.5,0.3,2,0.2s1-0.5,1.3-1.3l0.3-0.7
		l-5.9-16.8h4.8l3.4,12h0.2l3.4-12l4.8,0l-6.4,18.1c-0.3,0.9-0.7,1.6-1.2,2.3c-0.5,0.6-1.2,1.2-2,1.5
		C145.4,41.4,144.4,41.5,143.3,41.5z"/>
</g>
</svg>
