<?xml version="1.0" encoding="utf-8"?>
<!-- Generator: Adobe Illustrator 27.7.0, SVG Export Plug-In . SVG Version: 6.00 Build 0)  -->
<svg version="1.1" id="Layer_1" xmlns="http://www.w3.org/2000/svg" xmlns:xlink="http://www.w3.org/1999/xlink" x="0px" y="0px"
	 viewBox="0 0 209 54" style="enable-background:new 0 0 209 54;" xml:space="preserve">
<style type="text/css">
	
		.st0{fill-rule:evenodd;clip-rule:evenodd;fill:#2584FF;stroke:#2584FF;stroke-width:10;stroke-linecap:round;stroke-linejoin:round;}
	
		.st1{fill-rule:evenodd;clip-rule:evenodd;fill:#FF3400;stroke:#FF3400;stroke-width:10;stroke-linecap:round;stroke-linejoin:round;}
	.st2{enable-background:new    ;}
	.st3{fill:#FFFFFF;}
</style>
<path id="Polygon_1_copy_2" class="st0" d="M43.9,29.7l-19.6,9.5L32,14L43.9,29.7z"/>
<path id="Polygon_1_copy_2-2" class="st1" d="M37,29.7l19.6,9.5L48.8,14L37,29.7z"/>
<g id="Moshify" class="st2">
	<path class="st3" d="M73.4,13.6H79l6,14.7h0.3l6-14.7H97v21.8h-4.5V21.2h-0.2l-5.6,14.1h-3L78,21.2h-0.2v14.3h-4.5V13.6z"/>
	<path class="st3" d="M108.1,35.8c-1.7,0-3.1-0.4-4.3-1.1c-1.2-0.7-2.1-1.7-2.8-3s-1-2.7-1-4.4c0-1.7,0.3-3.2,1-4.4s1.6-2.3,2.8-3
		c1.2-0.7,2.6-1.1,4.3-1.1c1.7,0,3.1,0.4,4.3,1.1c1.2,0.7,2.1,1.7,2.8,3s1,2.7,1,4.4c0,1.7-0.3,3.1-1,4.4s-1.6,2.3-2.8,3
		C111.2,35.4,109.8,35.8,108.1,35.8z M108.1,32.2c0.8,0,1.4-0.2,1.9-0.6s0.9-1,1.1-1.8c0.3-0.7,0.4-1.6,0.4-2.5s-0.1-1.8-0.4-2.5
		c-0.3-0.7-0.6-1.3-1.1-1.8c-0.5-0.4-1.1-0.6-1.9-0.6c-0.8,0-1.4,0.2-1.9,0.6c-0.5,0.4-0.9,1-1.2,1.8c-0.3,0.7-0.4,1.6-0.4,2.5
		s0.1,1.8,0.4,2.5c0.3,0.7,0.6,1.3,1.2,1.8C106.7,32,107.4,32.2,108.1,32.2z"/>
	<path class="st3" d="M132.7,23.7l-4.2,0.3c-0.1-0.4-0.2-0.7-0.5-1s-0.5-0.5-0.9-0.7c-0.4-0.2-0.8-0.3-1.4-0.3
		c-0.7,0-1.3,0.1-1.8,0.4c-0.5,0.3-0.7,0.7-0.7,1.2c0,0.4,0.2,0.7,0.5,1s0.8,0.5,1.6,0.6l3,0.6c1.6,0.3,2.8,0.9,3.6,1.6
		c0.8,0.7,1.2,1.7,1.2,2.9c0,1.1-0.3,2-0.9,2.8s-1.5,1.4-2.6,1.9c-1.1,0.5-2.3,0.7-3.8,0.7c-2.2,0-3.9-0.5-5.2-1.4s-2-2.1-2.3-3.7
		l4.5-0.2c0.1,0.7,0.5,1.2,1,1.5s1.2,0.5,2,0.5c0.8,0,1.4-0.2,1.9-0.5c0.5-0.3,0.7-0.7,0.7-1.2c0-0.4-0.2-0.8-0.5-1
		s-0.9-0.5-1.6-0.6l-2.8-0.6c-1.6-0.3-2.8-0.9-3.6-1.7c-0.8-0.8-1.2-1.8-1.2-3c0-1.1,0.3-2,0.9-2.7c0.6-0.8,1.4-1.3,2.4-1.8
		c1-0.4,2.3-0.6,3.7-0.6c2.1,0,3.7,0.4,4.9,1.3S132.5,22.2,132.7,23.7z"/>
	<path class="st3" d="M140.5,26v9.5H136V13.6h4.4V22h0.2c0.4-1,1-1.7,1.8-2.3c0.8-0.5,1.9-0.8,3.1-0.8c1.1,0,2.1,0.2,3,0.7
		c0.8,0.5,1.5,1.2,2,2.1c0.5,0.9,0.7,2,0.7,3.3v10.4h-4.5v-9.6c0-1-0.2-1.8-0.8-2.4c-0.5-0.6-1.2-0.8-2.2-0.8
		c-0.6,0-1.2,0.1-1.6,0.4s-0.8,0.6-1.1,1.1C140.7,24.7,140.5,25.3,140.5,26z"/>
	<path class="st3" d="M157,17c-0.7,0-1.3-0.2-1.7-0.7c-0.5-0.5-0.7-1-0.7-1.6c0-0.6,0.2-1.2,0.7-1.6c0.5-0.5,1.1-0.7,1.7-0.7
		c0.7,0,1.3,0.2,1.7,0.7c0.5,0.5,0.7,1,0.7,1.6c0,0.6-0.2,1.2-0.7,1.6C158.2,16.7,157.7,17,157,17z M154.7,35.4V19.1h4.5v16.4H154.7
		z"/>
	<path class="st3" d="M171.7,19.1v3.4h-10.1v-3.4H171.7z M163.9,35.4V17.9c0-1.2,0.2-2.2,0.7-3c0.5-0.8,1.1-1.4,1.9-1.8
		c0.8-0.4,1.7-0.6,2.8-0.6c0.7,0,1.3,0.1,1.9,0.2c0.6,0.1,1,0.2,1.3,0.3l-0.8,3.4c-0.2-0.1-0.4-0.1-0.7-0.2c-0.3,0-0.5-0.1-0.8-0.1
		c-0.7,0-1.1,0.2-1.4,0.5c-0.3,0.3-0.4,0.7-0.4,1.3v17.5H163.9z"/>
	<path class="st3" d="M177.2,41.5c-0.6,0-1.1,0-1.6-0.1s-0.9-0.2-1.2-0.3l1-3.4c0.8,0.2,1.5,0.3,2,0.2s1-0.5,1.3-1.3l0.3-0.7
		l-5.9-16.8h4.8l3.4,12h0.2l3.4-12l4.8,0l-6.4,18.1c-0.3,0.9-0.7,1.6-1.2,2.3c-0.5,0.6-1.2,1.2-2,1.5
		C179.3,41.4,178.3,41.5,177.2,41.5z"/>
</g>
</svg>
